<svg id="visual" viewBox="0 0 900 600" width="900" height="600" xmlns="http://www.w3.org/2000/svg" xmlns:xlink="http://www.w3.org/1999/xlink" version="1.1"><path d="M0 483L15 487.5C30 492 60 501 90 502.5C120 504 150 498 180 492.8C210 487.7 240 483.3 270 482.5C300 481.7 330 484.3 360 481.5C390 478.7 420 470.3 450 470C480 469.7 510 477.3 540 485.3C570 493.3 600 501.7 630 498.8C660 496 690 482 720 479.2C750 476.3 780 484.7 810 484.2C840 483.7 870 474.3 885 469.7L900 465L900 601L885 601C870 601 840 601 810 601C780 601 750 601 720 601C690 601 660 601 630 601C600 601 570 601 540 601C510 601 480 601 450 601C420 601 390 601 360 601C330 601 300 601 270 601C240 601 210 601 180 601C150 601 120 601 90 601C60 601 30 601 15 601L0 601Z" fill="#4cc9f0"></path><path d="M0 532L15 530.8C30 529.7 60 527.3 90 520.3C120 513.3 150 501.7 180 498.3C210 495 240 500 270 503.5C300 507 330 509 360 512.3C390 515.7 420 520.3 450 517.3C480 514.3 510 503.7 540 500.5C570 497.3 600 501.7 630 507.5C660 513.3 690 520.7 720 518.3C750 516 780 504 810 504.5C840 505 870 518 885 524.5L900 531L900 601L885 601C870 601 840 601 810 601C780 601 750 601 720 601C690 601 660 601 630 601C600 601 570 601 540 601C510 601 480 601 450 601C420 601 390 601 360 601C330 601 300 601 270 601C240 601 210 601 180 601C150 601 120 601 90 601C60 601 30 601 15 601L0 601Z" fill="#97dbf5"></path><path d="M0 538L15 536.3C30 534.7 60 531.3 90 532.3C120 533.3 150 538.7 180 540.8C210 543 240 542 270 538C300 534 330 527 360 522.5C390 518 420 516 450 520.2C480 524.3 510 534.7 540 539.2C570 543.7 600 542.3 630 541.5C660 540.7 690 540.3 720 541.2C750 542 780 544 810 543.7C840 543.3 870 540.7 885 539.3L900 538L900 601L885 601C870 601 840 601 810 601C780 601 750 601 720 601C690 601 660 601 630 601C600 601 570 601 540 601C510 601 480 601 450 601C420 601 390 601 360 601C330 601 300 601 270 601C240 601 210 601 180 601C150 601 120 601 90 601C60 601 30 601 15 601L0 601Z" fill="#ceedfa"></path><path d="M0 575L15 575.3C30 575.7 60 576.3 90 575.7C120 575 150 573 180 570.5C210 568 240 565 270 561.7C300 558.3 330 554.7 360 554.5C390 554.3 420 557.7 450 557.8C480 558 510 555 540 558.2C570 561.3 600 570.7 630 573.7C660 576.7 690 573.3 720 571.5C750 569.7 780 569.3 810 565.8C840 562.3 870 555.7 885 552.3L900 549L900 601L885 601C870 601 840 601 810 601C780 601 750 601 720 601C690 601 660 601 630 601C600 601 570 601 540 601C510 601 480 601 450 601C420 601 390 601 360 601C330 601 300 601 270 601C240 601 210 601 180 601C150 601 120 601 90 601C60 601 30 601 15 601L0 601Z" fill="#ffffff"></path></svg>